<svg width="293" height="48" viewBox="0 0 293 48" fill="none" xmlns="http://www.w3.org/2000/svg">
    <path
        d="M23.2207 0.5C29.6273 0.5 35.439 3.10002 39.6426 7.31055C43.8461 11.5211 46.4414 17.3307 46.4414 23.7598C46.4413 30.1887 43.846 35.9976 39.6426 40.208C35.439 44.4185 29.6392 47.0186 23.2207 47.0186C21.6371 47.0185 20.0891 46.8638 18.5889 46.5537V46.5176C14.9331 45.7065 11.6698 43.9532 9.09766 41.5557C5.46572 38.1682 3.22754 33.4921 3.22754 28.3154C3.22762 23.139 5.27515 18.8809 8.62109 15.5293C8.50205 16.0898 8.43127 16.6626 8.45508 17.1992C5.82344 20.2407 4.23934 24.105 4.23926 28.3154C4.23926 33.1939 6.35854 37.608 9.78809 40.8047C13.17 43.9656 17.8387 45.9455 23.0068 45.9932H23.2207C29.3534 45.9932 34.903 43.5001 38.916 39.4805C42.929 35.4609 45.4178 29.8905 45.418 23.7598C45.418 17.6289 42.9291 12.0578 38.916 8.03809C34.903 4.00651 29.3534 1.51367 23.2207 1.51367C17.0883 1.51372 11.5393 4.00673 7.52637 8.03809C3.50141 12.0578 1.01172 17.6169 1.01172 23.7598C1.01179 27.0635 1.72679 30.1882 3.0127 33.0029C3.65569 35.448 4.7988 37.7265 6.34668 39.7422C2.41732 35.5795 0.000119738 29.9499 0 23.7598C0 17.5692 2.59623 11.5211 6.7998 7.31055C11.0033 3.10021 16.8143 0.50005 23.2207 0.5ZM30.3779 39.6592C31.4138 40.0647 32.5924 40.4703 32.6045 41.4004C26.3646 41.4481 20.1004 41.4481 13.8486 41.4004C13.8607 40.4703 15.0157 40.0646 16.0635 39.6592H30.3779ZM24.9121 30.749C25.7695 38.5852 29.4009 37.7268 29.8418 39.2891H16.6113C17.0402 37.691 20.7085 38.633 21.542 30.749H24.9121ZM16.8145 9.78027C21.0418 9.06462 25.3762 9.06462 29.6035 9.78027L30.7148 9.97559C33.2795 10.461 35.7731 11.2038 36.6172 13.4893C37.3078 15.3618 37.9392 17.7233 36.832 18.7373C36.4954 19.0447 35.9035 19.2261 35.0635 19.2793C35.1867 19.4719 35.2598 19.699 35.2598 19.9424C35.2598 20.4076 35.01 20.8136 34.6289 21.0283L38.2246 32.3711H39.6895C39.3203 35.2218 36.9271 37.4287 34.0215 37.4287C31.1159 37.4287 28.7227 35.2219 28.3535 32.3711H29.8184L33.4141 21.0283C33.0449 20.8136 32.7832 20.4076 32.7832 19.9424C32.7832 19.6592 32.8778 19.4008 33.0352 19.1934C32.2055 19.0643 31.5574 18.8165 31.0918 18.4512C30.711 18.1531 30.4256 17.7476 30.2471 17.2588C31.1405 17.8313 33.6765 18.6417 35.7363 17.9619C34.4502 18.1289 31.6871 17.9977 30.1152 16.5664C29.9963 15.9703 30.0205 15.6002 30.0205 15.0039C30.0205 14.8847 29.9966 14.7772 29.9609 14.6699C30.4492 15.0039 30.8543 15.3742 31.1758 15.7559C31.176 15.7676 31.199 15.7793 31.2109 15.791C31.1158 15.5886 30.9971 15.386 30.8545 15.1836C30.4377 14.623 29.8176 14.0977 29.0674 13.7041C26.5664 12.2372 19.8627 12.237 17.374 13.7041C16.6238 14.1096 16.0047 14.6349 15.5879 15.1836C15.4333 15.3862 15.3139 15.5885 15.2188 15.791C15.2193 15.7793 15.242 15.7675 15.2539 15.7559C15.5754 15.3861 15.9924 15.0158 16.4688 14.6699C16.4331 14.7772 16.4092 14.8847 16.4092 15.0039C16.4092 15.6002 16.4334 15.9822 16.3145 16.5664C14.7426 17.9977 11.9675 18.1408 10.6934 17.9619C12.7654 18.6418 15.3024 17.8313 16.1836 17.2588C16.005 17.7596 15.7188 18.153 15.3379 18.4512C14.8736 18.8155 14.2277 19.0621 13.4014 19.1914C13.5619 19.4006 13.6582 19.661 13.6582 19.9424C13.6582 20.4076 13.4084 20.8136 13.0273 21.0283L16.624 32.3711H18.0889C17.7197 35.2219 15.3255 37.4287 12.4199 37.4287C9.51442 37.4286 7.1211 35.2218 6.75195 32.3711H8.2168L11.8125 21.0283C11.4434 20.8136 11.1816 20.4076 11.1816 19.9424C11.1816 19.6973 11.2522 19.4704 11.373 19.2793C10.5296 19.2266 9.93512 19.0455 9.59766 18.7373C8.49066 17.7113 9.1219 15.3617 9.8125 13.4893C10.7652 10.8891 13.897 10.2812 16.8145 9.78027ZM95.1104 14.6104C96.575 14.6104 97.5276 14.8371 98.123 14.9922C98.3255 15.0399 98.4443 15.1115 98.4443 15.2666C98.4443 15.5648 98.3496 16.2208 98.3496 17.998C98.3496 18.4986 98.2779 18.6775 98.0996 18.6777C97.9448 18.6777 97.8731 18.5468 97.873 18.2725C97.873 18.0697 97.7537 17.3659 97.2773 16.7695C96.932 16.3401 96.2772 15.6602 94.8008 15.6602C93.1217 15.6602 92.0977 16.6383 92.0977 17.998C92.0977 19.0358 92.6214 19.8353 94.5029 21.2666L95.1338 21.7432C97.8844 23.8066 98.8612 25.3813 98.8613 27.54C98.8613 28.864 98.3609 30.4265 96.7295 31.5C95.5984 32.2275 94.3247 32.4306 93.1221 32.4307L93.1572 32.4551C91.8474 32.4551 90.8231 32.2995 89.8467 31.8701C89.4896 31.7032 89.418 31.5956 89.418 31.0947C89.418 29.8428 89.5015 28.4717 89.5254 28.1133C89.5492 27.7676 89.6205 27.517 89.7988 27.5166C90.0013 27.5166 90.0254 27.7195 90.0254 27.8984C90.0254 28.1966 90.1085 28.6741 90.2275 29.0557C90.7158 30.7372 92.0618 31.3457 93.4668 31.3457C95.5031 31.3457 96.5039 29.9615 96.5039 28.7568C96.5039 27.6476 96.1578 26.5981 94.2764 25.1191L93.2285 24.2959C90.728 22.3398 89.8711 20.7411 89.8711 18.9043C89.8713 16.4115 91.9548 14.6104 95.1104 14.6104ZM125.476 14.9209C125.726 14.9209 125.881 14.9684 125.881 15.0996C125.881 15.2546 125.762 15.3261 125.56 15.3262C125.333 15.3262 125.012 15.35 124.762 15.4453C124.214 15.6481 123.964 16.5546 123.487 17.8545C122.439 20.7172 120.058 27.9461 118.95 31.3574C118.7 32.156 118.593 32.4304 118.296 32.4307C118.07 32.4307 117.938 32.1682 117.593 31.3213L112.877 19.9062H112.83C112.389 21.0633 109.376 29.1392 108.399 31.2266C107.959 32.1565 107.852 32.4306 107.578 32.4307C107.352 32.4307 107.256 32.1802 107.054 31.5957L107.066 31.584L102.255 17.1514C101.981 16.3167 101.732 15.7678 101.41 15.541C101.16 15.386 100.707 15.3379 100.505 15.3379C100.267 15.3379 100.136 15.3144 100.136 15.1357C100.136 14.9807 100.314 14.9326 100.636 14.9326C101.815 14.9326 103.053 15.0039 103.268 15.0039C103.482 15.0039 104.471 14.9326 105.792 14.9326C106.113 14.9326 106.269 15.0046 106.269 15.1357C106.268 15.3144 106.089 15.3379 105.863 15.3379C105.673 15.3379 105.447 15.3383 105.292 15.4336C105.09 15.529 105.042 15.6841 105.042 15.9346C105.042 16.2208 105.268 16.9959 105.542 18.0215C105.923 19.5244 108.042 26.4073 108.447 27.6836H108.519L112.925 15.8154C113.151 15.1717 113.318 14.9924 113.496 14.9922C113.746 14.9922 113.854 15.338 114.151 16.0654L118.867 27.5166H118.938C119.343 25.9898 121.153 19.99 121.951 17.3301C122.106 16.8053 122.178 16.3279 122.178 16.0059C122.178 15.6481 121.975 15.3262 121.094 15.3262C120.868 15.3262 120.713 15.2542 120.713 15.123C120.713 14.9684 120.892 14.9209 121.236 14.9209C122.439 14.9209 123.392 14.9922 123.595 14.9922C123.75 14.9921 124.726 14.9209 125.476 14.9209ZM197.008 14.6104C198.568 14.6104 200.569 14.8733 201.021 14.9688C201.498 15.0642 202.295 15.1949 202.819 15.2188C203.093 15.2426 203.141 15.3381 203.141 15.4932C203.141 15.7436 202.986 16.3878 202.986 19.2266C202.986 19.5842 202.915 19.704 202.736 19.7041C202.582 19.7041 202.534 19.5842 202.51 19.4053C202.438 18.8805 202.331 18.1526 201.735 17.5205C201.056 16.7929 199.234 15.7441 196.675 15.7441C195.436 15.7441 193.769 15.8274 192.186 17.1514C190.923 18.2249 190.102 19.9306 190.102 22.7217C190.102 27.612 193.21 31.2734 197.997 31.2734C198.592 31.2734 199.378 31.2738 199.926 31.0234C200.259 30.8565 200.354 30.5583 200.354 30.1768V28.041C200.354 26.908 200.355 26.0372 200.331 25.3574C200.307 24.5823 200.104 24.2127 199.354 24.0576C199.176 24.0099 198.794 23.9863 198.473 23.9863C198.258 23.9863 198.128 23.9378 198.128 23.8066C198.128 23.6281 198.283 23.5801 198.604 23.5801C199.782 23.5801 201.188 23.6523 201.891 23.6523C202.593 23.6523 203.796 23.5801 204.546 23.5801C204.843 23.5801 204.999 23.628 204.999 23.8066C204.999 23.9378 204.856 23.9863 204.701 23.9863C204.523 23.9863 204.368 24.0099 204.094 24.0576C203.486 24.1769 203.26 24.5584 203.236 25.3574C203.213 26.0373 203.213 26.9558 203.213 28.0889L203.188 28.0771V30.582C203.188 31.2022 203.165 31.2502 202.891 31.4053C201.414 32.1804 199.199 32.4307 197.425 32.4307C191.876 32.4306 186.946 29.7945 186.946 23.5205C186.946 19.8827 188.839 17.3423 190.899 16.0898C193.078 14.766 195.103 14.6104 197.008 14.6104ZM254.024 14.6104C255.584 14.6104 257.584 14.8733 258.037 14.9688C258.513 15.0642 259.312 15.1949 259.836 15.2188C260.11 15.2426 260.157 15.3382 260.157 15.4932C260.157 15.7436 260.002 16.3878 260.002 19.2266C260.002 19.5844 259.931 19.7041 259.752 19.7041C259.597 19.7039 259.55 19.5841 259.526 19.4053C259.455 18.8805 259.347 18.1526 258.752 17.5205C258.073 16.793 256.251 15.7442 253.691 15.7441C252.453 15.7441 250.786 15.8275 249.202 17.1514C247.94 18.2249 247.118 19.9306 247.118 22.7217C247.118 27.612 250.226 31.2734 255.013 31.2734C255.608 31.2734 256.395 31.2739 256.942 31.0234C257.276 30.8565 257.371 30.5582 257.371 30.1768V28.041C257.371 26.908 257.37 26.0372 257.347 25.3574C257.323 24.5822 257.12 24.2127 256.37 24.0576C256.191 24.0099 255.811 23.9863 255.489 23.9863C255.275 23.9863 255.144 23.9378 255.144 23.8066C255.144 23.628 255.299 23.5801 255.62 23.5801C256.799 23.5801 258.205 23.6523 258.907 23.6523C259.61 23.6523 260.812 23.5801 261.562 23.5801C261.86 23.5801 262.014 23.628 262.015 23.8066C262.015 23.9378 261.872 23.9863 261.717 23.9863C261.538 23.9864 261.383 24.0099 261.109 24.0576C260.502 24.177 260.277 24.5586 260.253 25.3574C260.229 26.0373 260.229 26.9558 260.229 28.0889L260.205 28.0771V30.582C260.205 31.2022 260.181 31.2502 259.907 31.4053C258.431 32.1806 256.216 32.4307 254.441 32.4307C248.892 32.4307 243.962 29.7946 243.962 23.5205C243.962 19.8826 245.856 17.3422 247.916 16.0898C250.095 14.766 252.119 14.6104 254.024 14.6104ZM71.127 14.6348C71.377 14.6348 71.5798 14.9324 71.9727 15.3379C72.2346 15.6361 75.6886 19.2743 78.999 22.5664C80.5471 24.1052 83.6072 27.3853 83.9883 27.7432H84.1074L83.8809 17.5332C83.857 16.1376 83.6542 15.7081 83.1064 15.4814C82.7612 15.3504 82.2257 15.3506 81.9043 15.3506C81.6424 15.3506 81.5469 15.2786 81.5469 15.1475C81.5469 14.9685 81.7972 14.9443 82.1426 14.9443C83.3211 14.9443 84.4044 15.0166 84.8809 15.0166C85.1309 15.0166 86.0009 14.9443 87.1084 14.9443C87.4059 14.9444 87.6318 14.9686 87.6318 15.1475C87.6318 15.2785 87.501 15.3505 87.2275 15.3506C87.0013 15.3506 86.8217 15.3503 86.5479 15.4219C85.9053 15.6009 85.727 16.0779 85.7031 17.3535L85.4531 31.6914C85.4531 32.1921 85.3575 32.3944 85.1553 32.3945C84.9052 32.3945 84.6309 32.144 84.3809 31.8936C82.9518 30.5337 80.0461 27.5525 77.6885 25.2148C75.2235 22.7577 72.6988 19.9782 72.2939 19.5488H72.2344L72.4844 29.0312C72.532 30.8078 72.83 31.4042 73.2822 31.5596C73.6633 31.6908 74.1047 31.7148 74.4619 31.7148C74.7114 31.7149 74.8425 31.7628 74.8428 31.8936C74.8428 32.0725 74.6399 32.1211 74.3184 32.1211C72.8419 32.1211 71.9367 32.0488 71.4961 32.0488C71.2928 32.0489 70.2213 32.1211 69.043 32.1211C68.7455 32.1211 68.543 32.0962 68.543 31.8936C68.5433 31.7627 68.6744 31.7148 68.9004 31.7148C69.1981 31.7148 69.6033 31.7028 69.9248 31.6074C70.5199 31.4284 70.6031 30.7725 70.627 28.793L70.8291 15.4102C70.8291 14.9571 70.9009 14.6351 71.127 14.6348ZM170.155 14.6348C170.405 14.6348 170.608 14.9324 171.001 15.3379C171.263 15.6361 174.716 19.2744 178.026 22.5664C179.574 24.1051 182.636 27.3853 183.017 27.7432H183.136L182.909 17.5332C182.885 16.1376 182.683 15.7081 182.135 15.4814C181.79 15.3503 181.254 15.3506 180.933 15.3506C180.659 15.3506 180.564 15.2786 180.563 15.1475C180.563 14.9686 180.813 14.9444 181.158 14.9443C182.337 14.9443 183.421 15.0166 183.897 15.0166C184.148 15.0166 185.017 14.9443 186.124 14.9443C186.422 14.9443 186.648 14.9685 186.648 15.1475C186.648 15.2786 186.517 15.3506 186.243 15.3506C186.017 15.3506 185.838 15.3503 185.564 15.4219C184.922 15.6008 184.743 16.0777 184.719 17.3535L184.469 31.6914C184.469 32.1923 184.373 32.3945 184.171 32.3945C183.921 32.3943 183.647 32.1439 183.397 31.8936C181.968 30.5338 179.063 27.5526 176.705 25.2148C174.24 22.7579 171.716 19.9785 171.311 19.5488H171.251L171.501 29.0312C171.549 30.8082 171.846 31.4044 172.299 31.5596C172.68 31.6907 173.12 31.7148 173.478 31.7148C173.727 31.7148 173.858 31.7627 173.858 31.8936C173.858 32.0725 173.656 32.1211 173.335 32.1211C171.858 32.1211 170.941 32.0488 170.513 32.0488C170.31 32.0488 169.238 32.1211 168.06 32.1211C167.762 32.1211 167.56 32.0963 167.56 31.8936C167.56 31.7627 167.703 31.7148 167.929 31.7148C168.226 31.7148 168.632 31.7028 168.953 31.6074C169.548 31.4283 169.631 30.7723 169.655 28.793L169.857 15.4102C169.857 14.957 169.929 14.6349 170.155 14.6348ZM8.85938 32.3711H12.0986V22.1494L8.85938 32.3711ZM12.7295 32.3711H15.9688L12.7295 22.1494V32.3711ZM30.4727 32.3711H33.7119V22.1494L30.4727 32.3711ZM34.3311 32.3711H37.5703L34.3311 22.1494V32.3711ZM137.789 14.8018C137.896 14.8018 137.92 14.8848 137.92 15.0039C137.92 15.159 137.813 15.4337 137.741 16.4834C137.729 16.7103 137.681 17.712 137.634 17.9863C137.61 18.1055 137.563 18.2362 137.408 18.2363C137.254 18.2363 137.206 18.1175 137.206 17.915C137.206 17.7481 137.181 17.3661 137.074 17.0918C136.908 16.6744 136.682 16.3998 135.551 16.2686C135.158 16.2208 132.776 16.1729 132.323 16.1729C132.216 16.1729 132.168 16.2446 132.168 16.3994V22.1494C132.168 22.3042 132.192 22.3994 132.323 22.3994C132.823 22.3994 135.431 22.3993 135.955 22.3516C136.491 22.3039 136.837 22.2325 137.039 22.0059C137.206 21.827 137.289 21.708 137.408 21.708C137.491 21.7081 137.562 21.7556 137.562 21.8867C137.562 22.0181 137.479 22.3884 137.384 23.5449C137.36 23.9983 137.289 24.9162 137.289 25.0713C137.289 25.2501 137.289 25.5006 137.087 25.501C136.932 25.501 136.884 25.4052 136.884 25.2979C136.86 25.0712 136.861 24.7728 136.789 24.4746C136.67 24.0215 136.36 23.6872 135.515 23.5918C135.074 23.5441 132.835 23.5205 132.287 23.5205C132.18 23.5207 132.156 23.6161 132.156 23.7471V25.5488C132.156 26.3126 132.132 28.4115 132.156 29.0674C132.204 30.6297 132.574 30.9756 134.884 30.9756C135.467 30.9756 136.419 30.9753 137.015 30.7012C137.61 30.4268 137.884 29.9498 138.039 29.0195C138.087 28.7691 138.134 28.6739 138.289 28.6738C138.468 28.6738 138.468 28.8525 138.468 29.0791C138.468 29.6039 138.289 31.1538 138.17 31.6074C138.015 32.1919 137.801 32.1924 136.943 32.1924C135.241 32.1924 133.99 32.1449 133.014 32.1211C132.037 32.0734 131.335 32.0488 130.656 32.0488C130.406 32.0488 129.906 32.0494 129.358 32.0732C128.846 32.0732 128.25 32.1211 127.798 32.1211C127.5 32.121 127.346 32.0486 127.346 31.8936C127.346 31.7865 127.43 31.7148 127.703 31.7148C128.048 31.7148 128.322 31.6678 128.524 31.6201C128.977 31.5247 129.084 31.0232 129.18 30.3672C129.299 29.4129 129.299 27.6117 129.299 25.5244L129.311 25.5723V21.5762C129.311 18.1177 129.31 17.4853 129.263 16.7578C129.215 15.9825 129.036 15.6121 128.286 15.457C128.107 15.4094 127.727 15.3857 127.405 15.3857C127.155 15.3857 127.025 15.3383 127.024 15.1836C127.024 15.0285 127.179 14.9805 127.524 14.9805C128.132 14.9805 128.787 15.0039 129.358 15.0039C129.942 15.0278 130.466 15.0518 130.787 15.0518C131.513 15.0518 136.025 15.0522 136.455 15.0283C136.884 14.9925 137.253 14.9442 137.432 14.8965C137.539 14.8726 137.682 14.8018 137.789 14.8018ZM241.438 14.8018C241.545 14.8018 241.568 14.8848 241.568 15.0039C241.568 15.159 241.461 15.4337 241.39 16.4834C241.378 16.7103 241.331 17.7121 241.283 17.9863C241.259 18.1056 241.211 18.2363 241.057 18.2363C240.902 18.2363 240.855 18.1175 240.854 17.915C240.854 17.7481 240.83 17.3661 240.723 17.0918C240.556 16.6744 240.33 16.3998 239.199 16.2686C238.806 16.2208 236.424 16.1729 235.972 16.1729C235.865 16.1729 235.817 16.2446 235.817 16.3994V22.1494C235.817 22.3042 235.841 22.3994 235.972 22.3994C236.472 22.3994 239.079 22.3993 239.604 22.3516C240.139 22.3039 240.485 22.2325 240.688 22.0059C240.854 21.827 240.938 21.708 241.057 21.708C241.14 21.7081 241.211 21.7556 241.211 21.8867C241.211 22.0181 241.127 22.3884 241.032 23.5449C241.008 23.9983 240.938 24.9162 240.938 25.0713C240.938 25.2501 240.937 25.5007 240.735 25.501C240.581 25.501 240.532 25.4052 240.532 25.2979C240.508 25.0712 240.509 24.7728 240.438 24.4746C240.318 24.0215 240.008 23.6872 239.163 23.5918C238.722 23.5441 236.483 23.5205 235.936 23.5205C235.829 23.5208 235.805 23.6162 235.805 23.7471V25.5488C235.805 26.3126 235.781 28.4115 235.805 29.0674C235.852 30.6297 236.222 30.9756 238.532 30.9756C239.116 30.9756 240.08 30.9753 240.663 30.7012C241.258 30.4268 241.533 29.9498 241.688 29.0195C241.735 28.7692 241.783 28.6739 241.938 28.6738C242.116 28.6738 242.116 28.8525 242.116 29.0791C242.116 29.6039 241.937 31.1539 241.818 31.6074C241.664 32.1919 241.449 32.1924 240.592 32.1924C238.889 32.1924 237.639 32.1449 236.662 32.1211C235.686 32.0734 234.983 32.0488 234.305 32.0488C234.055 32.0488 233.555 32.0494 233.007 32.0732C232.483 32.0732 231.887 32.1211 231.435 32.1211C231.137 32.1211 230.982 32.0486 230.982 31.8936C230.983 31.7865 231.066 31.7148 231.34 31.7148C231.685 31.7148 231.959 31.6678 232.161 31.6201C232.614 31.5247 232.721 31.0232 232.816 30.3672C232.935 29.4129 232.936 27.6117 232.936 25.5244L232.959 25.5723V21.5762C232.959 18.1177 232.959 17.4853 232.911 16.7578C232.863 15.9825 232.685 15.6121 231.935 15.457C231.756 15.4094 231.375 15.3857 231.054 15.3857C230.804 15.3857 230.673 15.3383 230.673 15.1836C230.673 15.0285 230.828 14.9805 231.173 14.9805C231.78 14.9805 232.435 15.0039 233.007 15.0039C233.602 15.0278 234.114 15.0518 234.436 15.0518C235.162 15.0518 239.673 15.0522 240.104 15.0283C240.532 14.9925 240.901 14.9442 241.08 14.8965C241.187 14.8726 241.33 14.8018 241.438 14.8018ZM224.135 14.9209C224.456 14.9209 224.611 14.9683 224.611 15.123C224.611 15.2781 224.48 15.3262 224.206 15.3262C223.956 15.3262 223.599 15.3498 223.325 15.3975C222.718 15.5167 222.54 15.8991 222.492 16.6982C222.445 17.4257 222.444 18.0581 222.444 21.5166L222.42 21.5283V25.5244C222.42 28.4347 222.42 30.0095 222.896 30.415C223.289 30.7609 223.873 30.916 225.647 30.916C226.85 30.916 227.731 30.8922 228.303 30.2842C228.577 29.9979 228.851 29.3532 228.898 28.9238C228.922 28.7092 228.97 28.5781 229.148 28.5781C229.303 28.5782 229.327 28.6857 229.327 28.96C229.327 29.2111 229.16 30.9164 228.981 31.5723C228.85 32.073 228.731 32.1807 227.553 32.1807C225.921 32.1807 224.742 32.1323 223.718 32.1084C222.694 32.0607 221.872 32.0371 220.943 32.0371C220.693 32.0371 220.193 32.0367 219.646 32.0605C219.134 32.0606 218.538 32.1084 218.086 32.1084C217.788 32.1084 217.633 32.0369 217.633 31.8818C217.633 31.7747 217.729 31.7032 218.002 31.7031C218.347 31.7031 218.622 31.6551 218.824 31.6074C219.276 31.5119 219.383 31.0113 219.479 30.3555C219.598 29.4013 219.598 27.6 219.598 25.5127V21.5166C219.598 18.0582 219.598 17.4257 219.551 16.6982C219.503 15.923 219.324 15.5525 218.574 15.3975C218.396 15.3497 218.121 15.3262 217.823 15.3262C217.573 15.3261 217.442 15.278 217.442 15.123C217.443 14.9684 217.598 14.9209 217.942 14.9209C219.014 14.9209 220.443 14.9922 221.051 14.9922C221.598 14.9922 223.253 14.9209 224.135 14.9209ZM287.808 14.9209C288.129 14.9209 288.284 14.9683 288.284 15.123C288.284 15.2781 288.153 15.3262 287.879 15.3262C287.629 15.3262 287.272 15.3498 286.998 15.3975C286.379 15.5167 286.2 15.8991 286.152 16.6982C286.105 17.4257 286.105 18.0582 286.105 21.5166L286.093 21.5283V25.5244C286.093 28.4347 286.093 30.0094 286.569 30.415C286.962 30.7609 287.546 30.916 289.32 30.916C290.523 30.916 291.404 30.8922 291.976 30.2842C292.249 29.9979 292.524 29.3532 292.571 28.9238C292.595 28.7092 292.643 28.5781 292.821 28.5781C292.976 28.5782 293 28.6857 293 28.96C293 29.2111 292.833 30.9164 292.654 31.5723C292.523 32.073 292.404 32.1807 291.226 32.1807C289.594 32.1807 288.416 32.1323 287.392 32.1084C286.38 32.0607 285.558 32.0371 284.629 32.0371C284.379 32.0371 283.878 32.0367 283.33 32.0605C282.818 32.0606 282.223 32.1084 281.771 32.1084C281.473 32.1084 281.318 32.0369 281.318 31.8818C281.319 31.7747 281.401 31.7032 281.675 31.7031C282.02 31.7031 282.295 31.6551 282.497 31.6074C282.949 31.5119 283.056 31.0113 283.151 30.3555C283.27 29.4013 283.271 27.6 283.271 25.5127V21.5166C283.271 18.0582 283.271 17.4257 283.224 16.6982C283.176 15.923 282.997 15.5525 282.247 15.3975C282.069 15.3498 281.795 15.3262 281.497 15.3262C281.247 15.3262 281.115 15.2781 281.115 15.123C281.116 14.9684 281.271 14.9209 281.615 14.9209C282.675 14.9209 284.116 14.9922 284.724 14.9922C285.271 14.9922 286.926 14.9209 287.808 14.9209ZM146.923 14.9209C148.352 14.9209 149.876 15.0516 151.103 15.8984C151.746 16.3278 152.65 17.4851 152.65 19.0117C152.65 20.6935 151.936 22.2447 149.649 24.1055C151.674 26.6459 153.245 28.6736 154.579 30.0811C155.841 31.405 156.771 31.5603 157.116 31.6318C157.366 31.6795 157.569 31.7031 157.747 31.7031C157.926 31.7031 158.021 31.7627 158.021 31.8818C158.021 32.0607 157.866 32.1083 157.593 32.1084H155.437C154.163 32.1084 153.603 32.0016 153.008 31.6797C152.031 31.1549 151.174 30.0932 149.899 28.3398C148.982 27.0874 147.947 25.5481 147.649 25.2021C147.542 25.071 147.399 25.0479 147.244 25.0479L145.268 25C145.16 25 145.089 25.0475 145.089 25.1787V25.501C145.089 27.6121 145.089 29.413 145.196 30.3672C145.256 31.0232 145.398 31.5247 146.077 31.6201C146.411 31.6678 146.911 31.7148 147.185 31.7148C147.363 31.7148 147.458 31.7746 147.458 31.8936C147.458 32.0486 147.304 32.1211 147.006 32.1211C145.696 32.1211 144.018 32.0489 143.672 32.0488C143.231 32.0488 141.803 32.1211 140.897 32.1211C140.6 32.1211 140.444 32.0486 140.444 31.8936C140.445 31.7865 140.54 31.7149 140.813 31.7148C141.159 31.7148 141.433 31.6678 141.636 31.6201C142.088 31.5246 142.195 31.0231 142.29 30.3672C142.409 29.4129 142.409 27.6118 142.409 25.5244L142.397 25.5127V21.5166C142.397 18.0581 142.397 17.4257 142.35 16.6982C142.302 15.9229 142.123 15.5525 141.373 15.3975C141.194 15.3498 140.813 15.3262 140.492 15.3262C140.242 15.3262 140.111 15.2781 140.111 15.123C140.112 14.9683 140.266 14.9209 140.611 14.9209C141.814 14.9209 143.243 14.9922 143.72 14.9922C144.494 14.9922 146.22 14.9209 146.923 14.9209ZM58.54 14.5986C58.7544 14.5986 58.8861 14.8013 59.1123 15.3262C59.6602 16.5788 63.2914 25.6679 64.7441 29.127C65.6134 31.1785 66.2688 31.5001 66.7451 31.6074C67.0903 31.6789 67.4235 31.7031 67.6973 31.7031C67.8758 31.7031 67.995 31.727 67.9951 31.8818C67.9951 32.0608 67.757 32.1084 66.9473 32.1084C66.1374 32.1084 64.47 32.1083 62.6602 32.0605C62.2555 32.0367 61.9814 32.0368 61.9814 31.8818C61.9816 31.7508 62.0776 31.7035 62.3037 31.6797C62.4584 31.6318 62.613 31.4285 62.5059 31.1543L60.6953 26.4668C60.6477 26.3597 60.5886 26.3116 60.4697 26.3115H55.3848C55.2777 26.3115 55.2302 26.3594 55.1826 26.4902L53.9561 29.6035C53.718 30.164 53.6104 30.7129 53.6104 30.9873C53.6104 31.3929 53.813 31.6914 54.5156 31.6914H54.8604C55.1342 31.6914 55.206 31.739 55.2061 31.8701C55.2061 32.049 55.0751 32.0967 54.8252 32.0967C54.0989 32.0967 53.1225 32.0254 52.4199 32.0254C52.1698 32.0254 50.9191 32.0967 49.7402 32.0967C49.4425 32.0967 49.3115 32.049 49.3115 31.8701C49.3116 31.7391 49.4067 31.6915 49.585 31.6914C49.7874 31.6914 50.1095 31.6674 50.2881 31.6436C51.3359 31.5004 51.7643 30.7249 52.2168 29.5918L57.9092 15.5049C58.171 14.8493 58.314 14.5989 58.54 14.5986ZM165.428 14.9326C165.725 14.9326 165.904 14.9803 165.904 15.1113C165.904 15.2902 165.773 15.3379 165.547 15.3379C165.321 15.3379 165.142 15.3625 164.868 15.4102C164.261 15.5295 164.082 15.9108 164.034 16.71C163.987 17.4375 163.987 18.0698 163.987 21.5283V25.5244C163.987 27.7307 163.987 29.5199 164.082 30.498C164.142 31.1064 164.309 31.512 164.987 31.6074C165.309 31.6551 165.797 31.7031 166.143 31.7031C166.38 31.7032 166.5 31.7628 166.5 31.8818C166.5 32.0368 166.321 32.1083 166.071 32.1084C164.571 32.1084 163.141 32.0371 162.534 32.0371C162.01 32.0371 160.581 32.1084 159.676 32.1084C159.378 32.1083 159.224 32.0368 159.224 31.8818C159.224 31.7746 159.307 31.7031 159.581 31.7031C159.926 31.7031 160.2 31.6551 160.402 31.6074C160.855 31.5239 160.986 31.1306 161.058 30.4746C161.177 29.5204 161.177 27.7311 161.177 25.5244H161.165V21.5283C161.165 18.0697 161.165 17.4375 161.117 16.71C161.07 15.9347 160.843 15.5529 160.343 15.4336C160.093 15.3621 159.795 15.3379 159.521 15.3379C159.295 15.3379 159.164 15.2902 159.164 15.1113C159.164 14.9803 159.355 14.9326 159.712 14.9326C160.581 14.9326 162.01 15.0039 162.665 15.0039C163.225 15.0039 164.57 14.9326 165.428 14.9326ZM270.601 14.5986C270.803 14.5986 270.946 14.8015 271.172 15.3262C271.72 16.5786 275.352 25.6679 276.805 29.127C277.674 31.1784 278.329 31.5001 278.806 31.6074C279.151 31.6789 279.484 31.7031 279.758 31.7031C279.936 31.7031 280.056 31.727 280.056 31.8818C280.056 32.0608 279.818 32.1084 279.008 32.1084C278.198 32.1084 276.531 32.1083 274.721 32.0605C274.316 32.0367 274.042 32.0369 274.042 31.8818C274.042 31.7509 274.137 31.7035 274.363 31.6797C274.518 31.632 274.674 31.4286 274.566 31.1543L272.756 26.4668C272.708 26.3595 272.648 26.3115 272.529 26.3115H267.445C267.338 26.3115 267.29 26.3593 267.242 26.4902L266.016 29.6035C265.778 30.164 265.671 30.7129 265.671 30.9873C265.671 31.3928 265.873 31.6913 266.575 31.6914H266.921C267.195 31.6914 267.267 31.739 267.267 31.8701C267.267 32.0489 267.136 32.0966 266.886 32.0967C266.159 32.0967 265.182 32.0254 264.479 32.0254C264.229 32.0255 262.979 32.0967 261.801 32.0967C261.503 32.0967 261.372 32.049 261.372 31.8701C261.372 31.739 261.467 31.6914 261.646 31.6914C261.848 31.6914 262.17 31.6674 262.349 31.6436C263.396 31.5003 263.825 30.7248 264.277 29.5918L269.97 15.5049C270.243 14.8491 270.374 14.5987 270.601 14.5986ZM20.9824 13.1436C22.4112 12.9766 24.0185 12.9766 25.4473 13.1436C25.6497 14.5271 27.1024 16.2801 25.626 17.7949C25.0068 18.2839 24.3997 18.5589 23.8877 18.5947H23.8516C23.9825 18.6543 24.1256 18.6904 24.2803 18.6904C24.435 18.6904 24.6019 18.6776 24.7686 18.6299C24.4828 22.1725 24.245 26.7532 24.4355 30.248H21.9941C22.1847 26.7532 21.9469 22.1725 21.6611 18.6299C21.8278 18.6895 21.9947 18.6904 22.1494 18.6904C22.3041 18.6904 22.4472 18.6543 22.5781 18.5947H22.542C22.0299 18.5589 21.4229 18.284 20.8037 17.7949C19.3391 16.2682 20.7919 14.5152 20.9824 13.1436ZM57.9805 19.251C57.921 19.2512 57.8734 19.3578 57.8496 19.4531L55.7656 25.0234C55.7418 25.1069 55.7661 25.1787 55.8613 25.1787H60.0166C60.1355 25.1787 60.1594 25.1193 60.1357 25.0479L58.0879 19.4531C58.076 19.3696 58.04 19.251 57.9805 19.251ZM270.041 19.251C269.982 19.251 269.934 19.3578 269.91 19.4531L267.826 25.0234C267.814 25.1068 267.826 25.1785 267.921 25.1787H272.077C272.196 25.1787 272.22 25.1193 272.196 25.0479L270.16 19.4531C270.136 19.3697 270.1 19.2511 270.041 19.251ZM146.494 15.9941C145.923 15.9941 145.517 16.0183 145.291 16.0898C145.136 16.1376 145.089 16.2333 145.089 16.4121H145.101V23.3184C145.101 23.5684 145.148 23.6521 145.303 23.7236C145.779 23.8787 146.459 23.9502 147.03 23.9502C147.935 23.9502 148.233 23.8665 148.638 23.5684C149.316 23.0673 149.971 22.0177 149.971 20.1572C149.971 16.925 147.828 15.9942 146.494 15.9941ZM12.4199 19.334C12.0866 19.3341 11.8125 19.6085 11.8125 19.9424C11.8125 20.2763 12.0866 20.5507 12.4199 20.5508C12.7534 20.5508 13.0273 20.2764 13.0273 19.9424C13.0273 19.6084 12.7533 19.334 12.4199 19.334ZM34.0215 19.334C33.6881 19.334 33.4141 19.6084 33.4141 19.9424C33.4141 20.2764 33.6881 20.5508 34.0215 20.5508C34.3549 20.5508 34.6289 20.2764 34.6289 19.9424C34.6289 19.6084 34.3549 19.334 34.0215 19.334ZM33.9385 10.0664C34.6053 10.0665 35.332 10.3165 35.9512 10.8174L36.1846 11.001C36.6787 11.4709 37.0048 12.043 37.1299 12.6064C37.1775 12.8091 37.2013 13.0239 37.1895 13.2266C37.1894 13.2148 37.1885 13.2032 37.1768 13.1914C36.9505 12.4757 36.4385 11.736 35.7002 11.1396C34.9621 10.5435 34.1289 10.1974 33.3789 10.1377H33.3311C33.5215 10.09 33.7361 10.0664 33.9385 10.0664ZM34.1055 8.63477C35.0936 8.55139 36.1174 8.84962 36.9746 9.5293L37.1416 9.67188C37.8949 10.3405 38.3528 11.2364 38.4756 12.1533C38.5232 12.4634 38.5232 12.7739 38.4756 13.084C38.4756 13.0602 38.4756 13.048 38.4639 13.0244C38.2257 11.9628 37.57 10.8894 36.5459 10.0664C35.5338 9.2435 34.3435 8.83721 33.248 8.8252H33.1885C33.486 8.72984 33.7841 8.65861 34.1055 8.63477ZM34.748 7.02441C35.9031 6.94093 37.1294 7.29927 38.1416 8.11035L38.3154 8.26562C39.2166 9.06131 39.7603 10.1147 39.9277 11.1992C39.9754 11.569 39.9879 11.9271 39.9521 12.2969C39.9521 12.273 39.9523 12.2485 39.9404 12.2246C39.6427 10.9723 38.8561 9.70846 37.6416 8.73047C36.4271 7.75247 35.034 7.25127 33.748 7.23926H33.6768C34.022 7.12008 34.379 7.06018 34.748 7.02441Z"
        fill="#161641" />
</svg>
    